<?xml version="1.0"?>
<svg width="250mm" height="200mm" viewBox="0 0   4100    2320"
     xmlns="http://www.w3.org/2000/svg"
     xmlns:xlink="http://www.w3.org/1999/xlink"
     xmlns:ev="http://www.w3.org/2001/xml-events">
<g font-family="Verdana" font-size="8" >
  <line x1="   300" y1="  2070" x2="   300" y2="  2150" style = "stroke:silver  ;"/>
  <line x1="   300" y1="  2070" x2="   300" y2="  2230" style = "stroke:silver  ;"/>
  <line x1="   300" y1="  2070" x2="   300" y2="  2310" style = "stroke:silver  ;"/>
  <line x1="   300" y1="  2150" x2="   300" y2="  2230" style = "stroke:silver  ;"/>
  <line x1="   300" y1="  2150" x2="   300" y2="  2310" style = "stroke:silver  ;"/>
  <line x1="   300" y1="  2230" x2="   300" y2="  2310" style = "stroke:silver  ;"/>
  <line x1="  2400" y1="   870" x2="   600" y2="    30" style = "stroke:silver  ;"/>
  <line x1="  2400" y1="   910" x2="   600" y2="   270" style = "stroke:silver  ;"/>
  <line x1="  2400" y1="   950" x2="   600" y2="   510" style = "stroke:silver  ;"/>
  <line x1="  2400" y1="   990" x2="   550" y2="   710" style = "stroke:silver  ;"/>
  <line x1="   900" y1="   790" x2="  2050" y2="  1150" style = "stroke:silver  ;"/>
  <line x1="   900" y1="   830" x2="  2050" y2="  1190" style = "stroke:silver  ;"/>
  <rect x="  2300" y="   140" width="   200" height="    20" style = "fill:chartreuse; stroke: Black;"/>     1
  <text  x="  2302" y="   148">SP-CORE_BOTTOM SYS-6 FLR-2 SCH-A
  <tspan x="  2302" y="   156">HPLCMT-CORE ZN</tspan></text>
  <rect x="  1000" y="  1300" width="   200" height="    20" style = "fill:orange; stroke: Black;"/>    16
  <text  x="  1002" y="  1308">100.0GAL ELECTRICITY WATER HEATER -
  <tspan x="  1002" y="  1316">100KBTU/HR 1.0 THERM EFF</tspan></text>
  <rect x="   200" y="  2060" width="   200" height="    20" style = "fill:snow; stroke: Black;"/>    17
  <text x="   202" y="  2073">OutdoorAir:NodeList</text>
  <rect x="   200" y="  2140" width="   200" height="    20" style = "fill:snow; stroke: Black;"/>    18
  <text x="   202" y="  2153">OutdoorAir:NodeList</text>
  <rect x="   200" y="  2220" width="   200" height="    20" style = "fill:snow; stroke: Black;"/>    19
  <text x="   202" y="  2233">OutdoorAir:NodeList</text>
  <rect x="   200" y="  2300" width="   200" height="    20" style = "fill:snow; stroke: Black;"/>    20
  <text x="   202" y="  2313">OutdoorAir:NodeList</text>
  <rect x="   800" y="   860" width="   200" height="    20" style = "fill:wheat; stroke: Black;"/>    42
  <text x="   802" y="   873">PIPE ADIABATIC 1</text>
  <rect x="  1400" y="   860" width="   200" height="    20" style = "fill:wheat; stroke: Black;"/>    43
  <text x="  1402" y="   873">PIPE ADIABATIC 2</text>
  <rect x="  1700" y="   860" width="   200" height="    20" style = "fill:wheat; stroke: Black;"/>    44
  <text x="  1702" y="   873">CHILLED WATER LOOP DEMAND INLET PIPE</text>
  <rect x="  2300" y="  1020" width="   200" height="    20" style = "fill:wheat; stroke: Black;"/>    45
  <text  x="  2302" y="  1028">CHILLED WATER LOOP DEMAND BYPASS
  <tspan x="  2302" y="  1036">PIPE</tspan></text>
  <rect x="  2900" y="  1020" width="   200" height="    20" style = "fill:wheat; stroke: Black;"/>    46
  <text  x="  2902" y="  1028">CHILLED WATER LOOP DEMAND OUTLET
  <tspan x="  2902" y="  1036">PIPE</tspan></text>
  <rect x="   700" y="  1140" width="   200" height="    20" style = "fill:wheat; stroke: Black;"/>    47
  <text x="   702" y="  1153">PIPE ADIABATIC 3</text>
  <rect x="  1200" y="  1140" width="   200" height="    20" style = "fill:wheat; stroke: Black;"/>    48
  <text x="  1202" y="  1153">PIPE ADIABATIC 4</text>
  <rect x="  1450" y="  1140" width="   200" height="    20" style = "fill:wheat; stroke: Black;"/>    49
  <text  x="  1452" y="  1148">CONDENSER WATER LOOP DEMAND INLET
  <tspan x="  1452" y="  1156">PIPE</tspan></text>
  <rect x="  1950" y="  1220" width="   200" height="    20" style = "fill:wheat; stroke: Black;"/>    50
  <text  x="  1952" y="  1228">CONDENSER WATER LOOP DEMAND BYPASS
  <tspan x="  1952" y="  1236">PIPE</tspan></text>
  <rect x="  2450" y="  1220" width="   200" height="    20" style = "fill:wheat; stroke: Black;"/>    51
  <text  x="  2452" y="  1228">CONDENSER WATER LOOP DEMAND OUTLET
  <tspan x="  2452" y="  1236">PIPE</tspan></text>
  <rect x="  1000" y="  1340" width="   200" height="    20" style = "fill:wheat; stroke: Black;"/>    52
  <text x="  1002" y="  1353">PIPE ADIABATIC 5</text>
  <rect x="  1800" y="  1340" width="   200" height="    20" style = "fill:wheat; stroke: Black;"/>    53
  <text x="  1802" y="  1353">PIPE ADIABATIC 7</text>
  <rect x="  2200" y="  1340" width="   200" height="    20" style = "fill:wheat; stroke: Black;"/>    54
  <text x="  2202" y="  1353">PIPE ADIABATIC 8</text>
  <rect x="  3000" y="  1340" width="   200" height="    20" style = "fill:wheat; stroke: Black;"/>    55
  <text x="  3002" y="  1353">PIPE ADIABATIC 6</text>
  <rect x="  3000" y="  1980" width="   200" height="    20" style = "fill:wheat; stroke: Black;"/>    56
  <text  x="  3002" y="  1988">MAIN SERVICE WATER LOOP DEMAND
  <tspan x="  3002" y="  1996">BYPASS PIPE</tspan></text>
  <rect x="  3800" y="  1980" width="   200" height="    20" style = "fill:wheat; stroke: Black;"/>    57
  <text x="  3802" y="  1993">PIPE ADIABATIC 9</text>
  <rect x="  2000" y="   860" width="   200" height="    20" style = "fill:wheat; stroke: Black;"/>    58
  <text x="  2002" y="   873">CHILLED WATER LOOP DEMAND SPLITTER</text>
  <rect x="  2600" y="  1020" width="   200" height="    20" style = "fill:wheat; stroke: Black;"/>    59
  <text x="  2602" y="  1033">CHILLED WATER LOOP DEMAND MIXER</text>
  <rect x="   500" y="   780" width="   200" height="    20" style = "fill:wheat; stroke: Black;"/>    60
  <text x="   502" y="   793">CHILLED WATER LOOP SUPPLY SPLITTER</text>
  <rect x="  1100" y="   860" width="   200" height="    20" style = "fill:wheat; stroke: Black;"/>    61
  <text x="  1102" y="   873">CHILLED WATER LOOP SUPPLY MIXER</text>
  <rect x="  1700" y="  1140" width="   200" height="    20" style = "fill:wheat; stroke: Black;"/>    62
  <text x="  1702" y="  1153">CONDENSER WATER LOOP DEMAND SPLITTER</text>
  <rect x="  2200" y="  1220" width="   200" height="    20" style = "fill:wheat; stroke: Black;"/>    63
  <text x="  2202" y="  1233">CONDENSER WATER LOOP DEMAND MIXER</text>
  <rect x="   450" y="  1100" width="   200" height="    20" style = "fill:wheat; stroke: Black;"/>    64
  <text x="   452" y="  1113">CONDENSER WATER LOOP SUPPLY SPLITTER</text>
  <rect x="   950" y="  1140" width="   200" height="    20" style = "fill:wheat; stroke: Black;"/>    65
  <text x="   952" y="  1153">CONDENSER WATER LOOP SUPPLY MIXER</text>
  <rect x="  2600" y="  1340" width="   200" height="    20" style = "fill:wheat; stroke: Black;"/>    66
  <text  x="  2602" y="  1348">MAIN SERVICE WATER LOOP DEMAND
  <tspan x="  2602" y="  1356">SPLITTER</tspan></text>
  <rect x="  3400" y="  1980" width="   200" height="    20" style = "fill:wheat; stroke: Black;"/>    67
  <text x="  3402" y="  1993">MAIN SERVICE WATER LOOP DEMAND MIXER</text>
  <rect x="   600" y="  1300" width="   200" height="    20" style = "fill:wheat; stroke: Black;"/>    68
  <text  x="   602" y="  1308">MAIN SERVICE WATER LOOP SUPPLY
  <tspan x="   602" y="  1316">SPLITTER</tspan></text>
  <rect x="  1400" y="  1340" width="   200" height="    20" style = "fill:wheat; stroke: Black;"/>    69
  <text x="  1402" y="  1353">MAIN SERVICE WATER LOOP SUPPLY MIXER</text>
  <rect x="  3000" y="  1380" width="   200" height="    20" style = "fill:wheat; stroke: Black;"/>    70
  <text x="  3002" y="  1393">WATER USE CONNECTIONS 1</text>
  <rect x="  3000" y="  1420" width="   200" height="    20" style = "fill:wheat; stroke: Black;"/>    71
  <text x="  3002" y="  1433">WATER USE CONNECTIONS 2</text>
  <rect x="  3000" y="  1460" width="   200" height="    20" style = "fill:wheat; stroke: Black;"/>    72
  <text x="  3002" y="  1473">WATER USE CONNECTIONS 3</text>
  <rect x="  3000" y="  1500" width="   200" height="    20" style = "fill:wheat; stroke: Black;"/>    73
  <text x="  3002" y="  1513">WATER USE CONNECTIONS 4</text>
  <rect x="  3000" y="  1540" width="   200" height="    20" style = "fill:wheat; stroke: Black;"/>    74
  <text x="  3002" y="  1553">WATER USE CONNECTIONS 5</text>
  <rect x="  3000" y="  1580" width="   200" height="    20" style = "fill:wheat; stroke: Black;"/>    75
  <text x="  3002" y="  1593">WATER USE CONNECTIONS 6</text>
  <rect x="  3000" y="  1620" width="   200" height="    20" style = "fill:wheat; stroke: Black;"/>    76
  <text x="  3002" y="  1633">WATER USE CONNECTIONS 7</text>
  <rect x="  3000" y="  1660" width="   200" height="    20" style = "fill:wheat; stroke: Black;"/>    77
  <text x="  3002" y="  1673">WATER USE CONNECTIONS 8</text>
  <rect x="  3000" y="  1700" width="   200" height="    20" style = "fill:wheat; stroke: Black;"/>    78
  <text x="  3002" y="  1713">WATER USE CONNECTIONS 9</text>
  <rect x="  3000" y="  1740" width="   200" height="    20" style = "fill:wheat; stroke: Black;"/>    79
  <text x="  3002" y="  1753">WATER USE CONNECTIONS 10</text>
  <rect x="  3000" y="  1780" width="   200" height="    20" style = "fill:wheat; stroke: Black;"/>    80
  <text x="  3002" y="  1793">WATER USE CONNECTIONS 11</text>
  <rect x="  3000" y="  1820" width="   200" height="    20" style = "fill:wheat; stroke: Black;"/>    81
  <text x="  3002" y="  1833">WATER USE CONNECTIONS 12</text>
  <rect x="  3000" y="  1860" width="   200" height="    20" style = "fill:wheat; stroke: Black;"/>    82
  <text x="  3002" y="  1873">WATER USE CONNECTIONS 13</text>
  <rect x="  3000" y="  1900" width="   200" height="    20" style = "fill:wheat; stroke: Black;"/>    83
  <text x="  3002" y="  1913">WATER USE CONNECTIONS 14</text>
  <rect x="  3000" y="  1940" width="   200" height="    20" style = "fill:wheat; stroke: Black;"/>    84
  <text x="  3002" y="  1953">WATER USE CONNECTIONS 15</text>
  <rect x="  1400" y="    20" width="   200" height="    20" style = "fill:wheat; stroke: Black;"/>    85
  <text x="  1402" y="    33">AIR LOOP HVAC ZONE SPLITTER 1</text>
  <rect x="  1400" y="   260" width="   200" height="    20" style = "fill:wheat; stroke: Black;"/>    86
  <text x="  1402" y="   273">AIR LOOP HVAC ZONE SPLITTER 2</text>
  <rect x="  1400" y="   500" width="   200" height="    20" style = "fill:wheat; stroke: Black;"/>    87
  <text x="  1402" y="   513">AIR LOOP HVAC ZONE SPLITTER 3</text>
  <rect x="  1200" y="   700" width="   200" height="    20" style = "fill:wheat; stroke: Black;"/>    88
  <text x="  1202" y="   713">AIR LOOP HVAC ZONE SPLITTER 4</text>
  <rect x="  1700" y="   140" width="   200" height="    20" style = "fill:wheat; stroke: Black;"/>    89
  <text  x="  1702" y="   148">AIR TERMINAL SINGLE DUCT VAV REHEAT
  <tspan x="  1702" y="   156">4</tspan></text>
  <rect x="  1700" y="   300" width="   200" height="    20" style = "fill:wheat; stroke: Black;"/>    90
  <text  x="  1702" y="   308">AIR TERMINAL SINGLE DUCT VAV REHEAT
  <tspan x="  1702" y="   316">7</tspan></text>
  <rect x="  1450" y="   700" width="   200" height="    20" style = "fill:wheat; stroke: Black;"/>    91
  <text  x="  1452" y="   708">AIR TERMINAL SINGLE DUCT VAV REHEAT
  <tspan x="  1452" y="   716">16</tspan></text>
  <rect x="  1700" y="   100" width="   200" height="    20" style = "fill:wheat; stroke: Black;"/>    92
  <text  x="  1702" y="   108">AIR TERMINAL SINGLE DUCT VAV REHEAT
  <tspan x="  1702" y="   116">3</tspan></text>
  <rect x="  1700" y="    60" width="   200" height="    20" style = "fill:wheat; stroke: Black;"/>    93
  <text  x="  1702" y="    68">AIR TERMINAL SINGLE DUCT VAV REHEAT
  <tspan x="  1702" y="    76">2</tspan></text>
  <rect x="  1700" y="    20" width="   200" height="    20" style = "fill:wheat; stroke: Black;"/>    94
  <text  x="  1702" y="    28">AIR TERMINAL SINGLE DUCT VAV REHEAT
  <tspan x="  1702" y="    36">1</tspan></text>
  <rect x="  1700" y="   180" width="   200" height="    20" style = "fill:wheat; stroke: Black;"/>    95
  <text  x="  1702" y="   188">AIR TERMINAL SINGLE DUCT VAV REHEAT
  <tspan x="  1702" y="   196">5</tspan></text>
  <rect x="  1700" y="   380" width="   200" height="    20" style = "fill:wheat; stroke: Black;"/>    96
  <text  x="  1702" y="   388">AIR TERMINAL SINGLE DUCT VAV REHEAT
  <tspan x="  1702" y="   396">9</tspan></text>
  <rect x="  1700" y="   260" width="   200" height="    20" style = "fill:wheat; stroke: Black;"/>    97
  <text  x="  1702" y="   268">AIR TERMINAL SINGLE DUCT VAV REHEAT
  <tspan x="  1702" y="   276">6</tspan></text>
  <rect x="  1700" y="   340" width="   200" height="    20" style = "fill:wheat; stroke: Black;"/>    98
  <text  x="  1702" y="   348">AIR TERMINAL SINGLE DUCT VAV REHEAT
  <tspan x="  1702" y="   356">8</tspan></text>
  <rect x="  1700" y="   420" width="   200" height="    20" style = "fill:wheat; stroke: Black;"/>    99
  <text  x="  1702" y="   428">AIR TERMINAL SINGLE DUCT VAV REHEAT
  <tspan x="  1702" y="   436">10</tspan></text>
  <rect x="  1700" y="   540" width="   200" height="    20" style = "fill:wheat; stroke: Black;"/>   100
  <text  x="  1702" y="   548">AIR TERMINAL SINGLE DUCT VAV REHEAT
  <tspan x="  1702" y="   556">12</tspan></text>
  <rect x="  1700" y="   580" width="   200" height="    20" style = "fill:wheat; stroke: Black;"/>   101
  <text  x="  1702" y="   588">AIR TERMINAL SINGLE DUCT VAV REHEAT
  <tspan x="  1702" y="   596">13</tspan></text>
  <rect x="  1700" y="   500" width="   200" height="    20" style = "fill:wheat; stroke: Black;"/>   102
  <text  x="  1702" y="   508">AIR TERMINAL SINGLE DUCT VAV REHEAT
  <tspan x="  1702" y="   516">11</tspan></text>
  <rect x="  1700" y="   620" width="   200" height="    20" style = "fill:wheat; stroke: Black;"/>   103
  <text  x="  1702" y="   628">AIR TERMINAL SINGLE DUCT VAV REHEAT
  <tspan x="  1702" y="   636">14</tspan></text>
  <rect x="  2000" y="   140" width="   200" height="    20" style = "fill:salmon; stroke: Black;"/>   104
  <text x="  2002" y="   153">COIL HEATING ELECTRIC 5</text>
  <rect x="  2000" y="   300" width="   200" height="    20" style = "fill:salmon; stroke: Black;"/>   105
  <text x="  2002" y="   313">COIL HEATING ELECTRIC 9</text>
  <rect x="  1700" y="   700" width="   200" height="    20" style = "fill:salmon; stroke: Black;"/>   106
  <text x="  1702" y="   713">COIL HEATING ELECTRIC 20</text>
  <rect x="  2000" y="   100" width="   200" height="    20" style = "fill:salmon; stroke: Black;"/>   107
  <text x="  2002" y="   113">COIL HEATING ELECTRIC 4</text>
  <rect x="  2000" y="    60" width="   200" height="    20" style = "fill:salmon; stroke: Black;"/>   108
  <text x="  2002" y="    73">COIL HEATING ELECTRIC 3</text>
  <rect x="  2000" y="    20" width="   200" height="    20" style = "fill:salmon; stroke: Black;"/>   109
  <text x="  2002" y="    33">COIL HEATING ELECTRIC 2</text>
  <rect x="  2000" y="   180" width="   200" height="    20" style = "fill:salmon; stroke: Black;"/>   110
  <text x="  2002" y="   193">COIL HEATING ELECTRIC 6</text>
  <rect x="  2000" y="   380" width="   200" height="    20" style = "fill:salmon; stroke: Black;"/>   111
  <text x="  2002" y="   393">COIL HEATING ELECTRIC 11</text>
  <rect x="  2000" y="   260" width="   200" height="    20" style = "fill:salmon; stroke: Black;"/>   112
  <text x="  2002" y="   273">COIL HEATING ELECTRIC 8</text>
  <rect x="  2000" y="   340" width="   200" height="    20" style = "fill:salmon; stroke: Black;"/>   113
  <text x="  2002" y="   353">COIL HEATING ELECTRIC 10</text>
  <rect x="  2000" y="   420" width="   200" height="    20" style = "fill:salmon; stroke: Black;"/>   114
  <text x="  2002" y="   433">COIL HEATING ELECTRIC 12</text>
  <rect x="  2000" y="   540" width="   200" height="    20" style = "fill:salmon; stroke: Black;"/>   115
  <text x="  2002" y="   553">COIL HEATING ELECTRIC 15</text>
  <rect x="  2000" y="   580" width="   200" height="    20" style = "fill:salmon; stroke: Black;"/>   116
  <text x="  2002" y="   593">COIL HEATING ELECTRIC 16</text>
  <rect x="  2000" y="   500" width="   200" height="    20" style = "fill:salmon; stroke: Black;"/>   117
  <text x="  2002" y="   513">COIL HEATING ELECTRIC 14</text>
  <rect x="  2000" y="   620" width="   200" height="    20" style = "fill:salmon; stroke: Black;"/>   118
  <text x="  2002" y="   633">COIL HEATING ELECTRIC 17</text>
  <rect x="   800" y="    20" width="   200" height="    20" style = "fill:salmon; stroke: Black;"/>   119
  <text x="   802" y="    33">COIL HEATING ELECTRIC 1</text>
  <rect x="   800" y="   260" width="   200" height="    20" style = "fill:salmon; stroke: Black;"/>   120
  <text x="   802" y="   273">COIL HEATING ELECTRIC 7</text>
  <rect x="   800" y="   500" width="   200" height="    20" style = "fill:salmon; stroke: Black;"/>   121
  <text x="   802" y="   513">COIL HEATING ELECTRIC 13</text>
  <rect x="   700" y="   700" width="   200" height="    20" style = "fill:salmon; stroke: Black;"/>   122
  <text x="   702" y="   713">COIL HEATING ELECTRIC 19</text>
  <rect x="  2600" y="   180" width="   200" height="    20" style = "fill:wheat; stroke: Black;"/>   124
  <text x="  2602" y="   193">AIR LOOP HVAC ZONE MIXER 1</text>
  <rect x="  2600" y="   420" width="   200" height="    20" style = "fill:wheat; stroke: Black;"/>   125
  <text x="  2602" y="   433">AIR LOOP HVAC ZONE MIXER 2</text>
  <rect x="  2600" y="   620" width="   200" height="    20" style = "fill:wheat; stroke: Black;"/>   126
  <text x="  2602" y="   633">AIR LOOP HVAC ZONE MIXER 3</text>
  <rect x="  2200" y="   700" width="   200" height="    20" style = "fill:wheat; stroke: Black;"/>   127
  <text x="  2202" y="   713">AIR LOOP HVAC ZONE MIXER 4</text>
  <rect x="   200" y="    20" width="   200" height="    20" style = "fill:lawngreen; stroke: Black;"/>   128
  <text  x="   202" y="    28">AIR LOOP HVAC OUTDOOR AIR SYSTEM 1
  <tspan x="   202" y="    36">OUTDOOR AIR MIXER</tspan></text>
  <rect x="   200" y="   260" width="   200" height="    20" style = "fill:lawngreen; stroke: Black;"/>   129
  <text  x="   202" y="   268">AIR LOOP HVAC OUTDOOR AIR SYSTEM 2
  <tspan x="   202" y="   276">OUTDOOR AIR MIXER</tspan></text>
  <rect x="   200" y="   500" width="   200" height="    20" style = "fill:lawngreen; stroke: Black;"/>   130
  <text  x="   202" y="   508">AIR LOOP HVAC OUTDOOR AIR SYSTEM 3
  <tspan x="   202" y="   516">OUTDOOR AIR MIXER</tspan></text>
  <rect x="   200" y="   700" width="   200" height="    20" style = "fill:lawngreen; stroke: Black;"/>   131
  <text  x="   202" y="   708">AIR LOOP HVAC OUTDOOR AIR SYSTEM 4
  <tspan x="   202" y="   716">OUTDOOR AIR MIXER</tspan></text>
  <rect x="  2300" y="   860" width="   200" height="    20" style = "fill:skyblue; stroke: Black;"/>   132
  <text x="  2302" y="   873">COIL COOLING WATER 1</text>
  <rect x="   500" y="    20" width="   200" height="    20" style = "fill:skyblue; stroke: Black;"/>   133
  <text x="   502" y="    33">COIL COOLING WATER 1</text>
  <rect x="  2300" y="   900" width="   200" height="    20" style = "fill:skyblue; stroke: Black;"/>   134
  <text x="  2302" y="   913">COIL COOLING WATER 2</text>
  <rect x="   500" y="   260" width="   200" height="    20" style = "fill:skyblue; stroke: Black;"/>   135
  <text x="   502" y="   273">COIL COOLING WATER 2</text>
  <rect x="  2300" y="   940" width="   200" height="    20" style = "fill:skyblue; stroke: Black;"/>   136
  <text x="  2302" y="   953">COIL COOLING WATER 3</text>
  <rect x="   500" y="   500" width="   200" height="    20" style = "fill:skyblue; stroke: Black;"/>   137
  <text x="   502" y="   513">COIL COOLING WATER 3</text>
  <rect x="  2300" y="   980" width="   200" height="    20" style = "fill:skyblue; stroke: Black;"/>   138
  <text x="  2302" y="   993">COIL COOLING WATER 4</text>
  <rect x="   450" y="   700" width="   200" height="    20" style = "fill:skyblue; stroke: Black;"/>   139
  <text x="   452" y="   713">COIL COOLING WATER 4</text>
  <rect x="  1100" y="    20" width="   200" height="    20" style = "fill:silver; stroke: Black;"/>   144
  <text x="  1102" y="    33">FAN VARIABLE VOLUME 1</text>
  <rect x="  1100" y="   260" width="   200" height="    20" style = "fill:silver; stroke: Black;"/>   145
  <text x="  1102" y="   273">FAN VARIABLE VOLUME 2</text>
  <rect x="  1100" y="   500" width="   200" height="    20" style = "fill:silver; stroke: Black;"/>   146
  <text x="  1102" y="   513">FAN VARIABLE VOLUME 3</text>
  <rect x="   950" y="   700" width="   200" height="    20" style = "fill:silver; stroke: Black;"/>   147
  <text x="   952" y="   713">FAN VARIABLE VOLUME 4</text>
  <rect x="   800" y="   780" width="   200" height="    20" style = "fill:powderblue; stroke: Black;"/>   152
  <text  x="   802" y="   788">PRIMARY CHILLER WATERCOOLED SCROLL
  <tspan x="   802" y="   796">82TONS 0.8KW/TON</tspan></text>
  <rect x="  1950" y="  1140" width="   200" height="    20" style = "fill:powderblue; stroke: Black;"/>   153
  <text  x="  1952" y="  1148">PRIMARY CHILLER WATERCOOLED SCROLL
  <tspan x="  1952" y="  1156">82TONS 0.8KW/TON</tspan></text>
  <rect x="   800" y="   820" width="   200" height="    20" style = "fill:powderblue; stroke: Black;"/>   154
  <text  x="   802" y="   828">SECONDARY CHILLER WATERCOOLED
  <tspan x="   802" y="   836">SCROLL 0TONS 0.8KW/TON</tspan></text>
  <rect x="  1950" y="  1180" width="   200" height="    20" style = "fill:powderblue; stroke: Black;"/>   155
  <text  x="  1952" y="  1188">SECONDARY CHILLER WATERCOOLED
  <tspan x="  1952" y="  1196">SCROLL 0TONS 0.8KW/TON</tspan></text>
  <rect x="   700" y="  1100" width="   200" height="    20" style = "fill:pink; stroke: Black;"/>   156
  <text x="   702" y="  1113">COOLING TOWER SINGLE SPEED 1</text>
  <rect x="   200" y="   780" width="   200" height="    20" style = "fill:springgreen; stroke: Black;"/>   157
  <text x="   202" y="   793">PUMP CONSTANT SPEED 1</text>
  <rect x="   200" y="  1100" width="   200" height="    20" style = "fill:springgreen; stroke: Black;"/>   158
  <text x="   202" y="  1113">PUMP CONSTANT SPEED 2</text>
  <rect x="   200" y="  1300" width="   200" height="    20" style = "fill:springgreen; stroke: Black;"/>   159
  <text x="   202" y="  1313">SERVICE WATER LOOP PUMP</text>
  <rect x="  2300" y="   300" width="   200" height="    20" style = "fill:chartreuse; stroke: Black;"/>   160
  <text  x="  2302" y="   308">SP-CORE_MID SYS-6 FLR-3 SCH-A
  <tspan x="  2302" y="   316">HPLCMT-CORE ZN</tspan></text>
  <rect x="  1950" y="   700" width="   200" height="    20" style = "fill:chartreuse; stroke: Black;"/>   161
  <text  x="  1952" y="   708">SP-CORE_TOP SYS-6 FLR-1 SCH-A
  <tspan x="  1952" y="   716">HPLCMT-CORE ZN</tspan></text>
  <rect x="  2300" y="   100" width="   200" height="    20" style = "fill:chartreuse; stroke: Black;"/>   162
  <text  x="  2302" y="   108">SP-PERIMETER_BOT_ZN_1 SYS-6 FLR-2
  <tspan x="  2302" y="   116">SCH-A HPLCMT-SOUTH ZN</tspan></text>
  <rect x="  2300" y="    60" width="   200" height="    20" style = "fill:chartreuse; stroke: Black;"/>   163
  <text  x="  2302" y="    68">SP-PERIMETER_BOT_ZN_2 SYS-6 FLR-2
  <tspan x="  2302" y="    76">SCH-A HPLCMT-EAST ZN</tspan></text>
  <rect x="  2300" y="    20" width="   200" height="    20" style = "fill:chartreuse; stroke: Black;"/>   164
  <text  x="  2302" y="    28">SP-PERIMETER_BOT_ZN_3 SYS-6 FLR-2
  <tspan x="  2302" y="    36">SCH-A HPLCMT-NORTH ZN</tspan></text>
  <rect x="  2300" y="   180" width="   200" height="    20" style = "fill:chartreuse; stroke: Black;"/>   165
  <text  x="  2302" y="   188">SP-PERIMETER_BOT_ZN_4 SYS-6 FLR-2
  <tspan x="  2302" y="   196">SCH-A HPLCMT-WEST ZN</tspan></text>
  <rect x="  2300" y="   380" width="   200" height="    20" style = "fill:chartreuse; stroke: Black;"/>   166
  <text  x="  2302" y="   388">SP-PERIMETER_MID_ZN_1 SYS-6 FLR-3
  <tspan x="  2302" y="   396">SCH-A HPLCMT-SOUTH ZN</tspan></text>
  <rect x="  2300" y="   260" width="   200" height="    20" style = "fill:chartreuse; stroke: Black;"/>   167
  <text  x="  2302" y="   268">SP-PERIMETER_MID_ZN_2 SYS-6 FLR-3
  <tspan x="  2302" y="   276">SCH-A HPLCMT-EAST ZN</tspan></text>
  <rect x="  2300" y="   340" width="   200" height="    20" style = "fill:chartreuse; stroke: Black;"/>   168
  <text  x="  2302" y="   348">SP-PERIMETER_MID_ZN_3 SYS-6 FLR-3
  <tspan x="  2302" y="   356">SCH-A HPLCMT-NORTH ZN</tspan></text>
  <rect x="  2300" y="   420" width="   200" height="    20" style = "fill:chartreuse; stroke: Black;"/>   169
  <text  x="  2302" y="   428">SP-PERIMETER_MID_ZN_4 SYS-6 FLR-3
  <tspan x="  2302" y="   436">SCH-A HPLCMT-WEST ZN</tspan></text>
  <rect x="  2300" y="   540" width="   200" height="    20" style = "fill:chartreuse; stroke: Black;"/>   170
  <text  x="  2302" y="   548">SP-PERIMETER_TOP_ZN_1 SYS-6 FLR-1
  <tspan x="  2302" y="   556">SCH-A HPLCMT-SOUTH ZN</tspan></text>
  <rect x="  2300" y="   580" width="   200" height="    20" style = "fill:chartreuse; stroke: Black;"/>   171
  <text  x="  2302" y="   588">SP-PERIMETER_TOP_ZN_2 SYS-6 FLR-1
  <tspan x="  2302" y="   596">SCH-A HPLCMT-EAST ZN</tspan></text>
  <rect x="  2300" y="   500" width="   200" height="    20" style = "fill:chartreuse; stroke: Black;"/>   172
  <text  x="  2302" y="   508">SP-PERIMETER_TOP_ZN_3 SYS-6 FLR-1
  <tspan x="  2302" y="   516">SCH-A HPLCMT-NORTH ZN</tspan></text>
  <rect x="  2300" y="   620" width="   200" height="    20" style = "fill:chartreuse; stroke: Black;"/>   173
  <text  x="  2302" y="   628">SP-PERIMETER_TOP_ZN_4 SYS-6 FLR-1
  <tspan x="  2302" y="   636">SCH-A HPLCMT-WEST ZN</tspan></text>
  <line x1="  1200" y1="  1310" x2="  1400" y2="  1350" style = "stroke: Black;"/>
  <line x1="  1000" y1="   870" x2="  1100" y2="   870" style = "stroke: Black;"/>
  <line x1="  1600" y1="   870" x2="  1700" y2="   870" style = "stroke: Black;"/>
  <line x1="  1900" y1="   870" x2="  2000" y2="   870" style = "stroke: Black;"/>
  <line x1="  2500" y1="  1030" x2="  2600" y2="  1030" style = "stroke: Black;"/>
  <line x1="   900" y1="  1150" x2="   950" y2="  1150" style = "stroke: Black;"/>
  <line x1="  1400" y1="  1150" x2="  1450" y2="  1150" style = "stroke: Black;"/>
  <line x1="  1650" y1="  1150" x2="  1700" y2="  1150" style = "stroke: Black;"/>
  <line x1="  2150" y1="  1230" x2="  2200" y2="  1230" style = "stroke: Black;"/>
  <line x1="  1200" y1="  1350" x2="  1400" y2="  1350" style = "stroke: Black;"/>
  <line x1="  2000" y1="  1350" x2="  2200" y2="  1350" style = "stroke: Black;"/>
  <line x1="  2400" y1="  1350" x2="  2600" y2="  1350" style = "stroke: Black;"/>
  <line x1="  3200" y1="  1350" x2="  3400" y2="  1990" style = "stroke: Black;"/>
  <line x1="  3200" y1="  1990" x2="  3400" y2="  1990" style = "stroke: Black;"/>
  <line x1="  2200" y1="   870" x2="  2300" y2="   870" style = "stroke: Black;"/>
  <line x1="  2200" y1="   870" x2="  2300" y2="   910" style = "stroke: Black;"/>
  <line x1="  2200" y1="   870" x2="  2300" y2="   950" style = "stroke: Black;"/>
  <line x1="  2200" y1="   870" x2="  2300" y2="   990" style = "stroke: Black;"/>
  <line x1="  2200" y1="   870" x2="  2300" y2="  1030" style = "stroke: Black;"/>
  <line x1="  2800" y1="  1030" x2="  2900" y2="  1030" style = "stroke: Black;"/>
  <line x1="   700" y1="   790" x2="   800" y2="   790" style = "stroke: Black;"/>
  <line x1="   700" y1="   790" x2="   800" y2="   830" style = "stroke: Black;"/>
  <line x1="   700" y1="   790" x2="   800" y2="   870" style = "stroke: Black;"/>
  <line x1="  1300" y1="   870" x2="  1400" y2="   870" style = "stroke: Black;"/>
  <line x1="  1900" y1="  1150" x2="  1950" y2="  1150" style = "stroke: Black;"/>
  <line x1="  1900" y1="  1150" x2="  1950" y2="  1190" style = "stroke: Black;"/>
  <line x1="  1900" y1="  1150" x2="  1950" y2="  1230" style = "stroke: Black;"/>
  <line x1="  2400" y1="  1230" x2="  2450" y2="  1230" style = "stroke: Black;"/>
  <line x1="   650" y1="  1110" x2="   700" y2="  1110" style = "stroke: Black;"/>
  <line x1="   650" y1="  1110" x2="   700" y2="  1150" style = "stroke: Black;"/>
  <line x1="  1150" y1="  1150" x2="  1200" y2="  1150" style = "stroke: Black;"/>
  <line x1="  2800" y1="  1350" x2="  3000" y2="  1350" style = "stroke: Black;"/>
  <line x1="  2800" y1="  1350" x2="  3000" y2="  1390" style = "stroke: Black;"/>
  <line x1="  2800" y1="  1350" x2="  3000" y2="  1430" style = "stroke: Black;"/>
  <line x1="  2800" y1="  1350" x2="  3000" y2="  1470" style = "stroke: Black;"/>
  <line x1="  2800" y1="  1350" x2="  3000" y2="  1510" style = "stroke: Black;"/>
  <line x1="  2800" y1="  1350" x2="  3000" y2="  1550" style = "stroke: Black;"/>
  <line x1="  2800" y1="  1350" x2="  3000" y2="  1590" style = "stroke: Black;"/>
  <line x1="  2800" y1="  1350" x2="  3000" y2="  1630" style = "stroke: Black;"/>
  <line x1="  2800" y1="  1350" x2="  3000" y2="  1670" style = "stroke: Black;"/>
  <line x1="  2800" y1="  1350" x2="  3000" y2="  1710" style = "stroke: Black;"/>
  <line x1="  2800" y1="  1350" x2="  3000" y2="  1750" style = "stroke: Black;"/>
  <line x1="  2800" y1="  1350" x2="  3000" y2="  1790" style = "stroke: Black;"/>
  <line x1="  2800" y1="  1350" x2="  3000" y2="  1830" style = "stroke: Black;"/>
  <line x1="  2800" y1="  1350" x2="  3000" y2="  1870" style = "stroke: Black;"/>
  <line x1="  2800" y1="  1350" x2="  3000" y2="  1910" style = "stroke: Black;"/>
  <line x1="  2800" y1="  1350" x2="  3000" y2="  1950" style = "stroke: Black;"/>
  <line x1="  2800" y1="  1350" x2="  3000" y2="  1990" style = "stroke: Black;"/>
  <line x1="  3600" y1="  1990" x2="  3800" y2="  1990" style = "stroke: Black;"/>
  <line x1="   800" y1="  1310" x2="  1000" y2="  1310" style = "stroke: Black;"/>
  <line x1="   800" y1="  1310" x2="  1000" y2="  1350" style = "stroke: Black;"/>
  <line x1="  1600" y1="  1350" x2="  1800" y2="  1350" style = "stroke: Black;"/>
  <line x1="  3200" y1="  1390" x2="  3400" y2="  1990" style = "stroke: Black;"/>
  <line x1="  3200" y1="  1430" x2="  3400" y2="  1990" style = "stroke: Black;"/>
  <line x1="  3200" y1="  1470" x2="  3400" y2="  1990" style = "stroke: Black;"/>
  <line x1="  3200" y1="  1510" x2="  3400" y2="  1990" style = "stroke: Black;"/>
  <line x1="  3200" y1="  1550" x2="  3400" y2="  1990" style = "stroke: Black;"/>
  <line x1="  3200" y1="  1590" x2="  3400" y2="  1990" style = "stroke: Black;"/>
  <line x1="  3200" y1="  1630" x2="  3400" y2="  1990" style = "stroke: Black;"/>
  <line x1="  3200" y1="  1670" x2="  3400" y2="  1990" style = "stroke: Black;"/>
  <line x1="  3200" y1="  1710" x2="  3400" y2="  1990" style = "stroke: Black;"/>
  <line x1="  3200" y1="  1750" x2="  3400" y2="  1990" style = "stroke: Black;"/>
  <line x1="  3200" y1="  1790" x2="  3400" y2="  1990" style = "stroke: Black;"/>
  <line x1="  3200" y1="  1830" x2="  3400" y2="  1990" style = "stroke: Black;"/>
  <line x1="  3200" y1="  1870" x2="  3400" y2="  1990" style = "stroke: Black;"/>
  <line x1="  3200" y1="  1910" x2="  3400" y2="  1990" style = "stroke: Black;"/>
  <line x1="  3200" y1="  1950" x2="  3400" y2="  1990" style = "stroke: Black;"/>
  <line x1="  1600" y1="    30" x2="  1700" y2="    30" style = "stroke: Black;"/>
  <line x1="  1600" y1="    30" x2="  1700" y2="    70" style = "stroke: Black;"/>
  <line x1="  1600" y1="    30" x2="  1700" y2="   110" style = "stroke: Black;"/>
  <line x1="  1600" y1="    30" x2="  1700" y2="   150" style = "stroke: Black;"/>
  <line x1="  1600" y1="    30" x2="  1700" y2="   190" style = "stroke: Black;"/>
  <line x1="  1600" y1="   270" x2="  1700" y2="   270" style = "stroke: Black;"/>
  <line x1="  1600" y1="   270" x2="  1700" y2="   310" style = "stroke: Black;"/>
  <line x1="  1600" y1="   270" x2="  1700" y2="   350" style = "stroke: Black;"/>
  <line x1="  1600" y1="   270" x2="  1700" y2="   390" style = "stroke: Black;"/>
  <line x1="  1600" y1="   270" x2="  1700" y2="   430" style = "stroke: Black;"/>
  <line x1="  1600" y1="   510" x2="  1700" y2="   510" style = "stroke: Black;"/>
  <line x1="  1600" y1="   510" x2="  1700" y2="   550" style = "stroke: Black;"/>
  <line x1="  1600" y1="   510" x2="  1700" y2="   590" style = "stroke: Black;"/>
  <line x1="  1600" y1="   510" x2="  1700" y2="   630" style = "stroke: Black;"/>
  <line x1="  1400" y1="   710" x2="  1450" y2="   710" style = "stroke: Black;"/>
  <line x1="  1900" y1="   150" x2="  2000" y2="   150" style = "stroke: Black;"/>
  <line x1="  1900" y1="   310" x2="  2000" y2="   310" style = "stroke: Black;"/>
  <line x1="  1650" y1="   710" x2="  1700" y2="   710" style = "stroke: Black;"/>
  <line x1="  1900" y1="   110" x2="  2000" y2="   110" style = "stroke: Black;"/>
  <line x1="  1900" y1="    70" x2="  2000" y2="    70" style = "stroke: Black;"/>
  <line x1="  1900" y1="    30" x2="  2000" y2="    30" style = "stroke: Black;"/>
  <line x1="  1900" y1="   190" x2="  2000" y2="   190" style = "stroke: Black;"/>
  <line x1="  1900" y1="   390" x2="  2000" y2="   390" style = "stroke: Black;"/>
  <line x1="  1900" y1="   270" x2="  2000" y2="   270" style = "stroke: Black;"/>
  <line x1="  1900" y1="   350" x2="  2000" y2="   350" style = "stroke: Black;"/>
  <line x1="  1900" y1="   430" x2="  2000" y2="   430" style = "stroke: Black;"/>
  <line x1="  1900" y1="   550" x2="  2000" y2="   550" style = "stroke: Black;"/>
  <line x1="  1900" y1="   590" x2="  2000" y2="   590" style = "stroke: Black;"/>
  <line x1="  1900" y1="   510" x2="  2000" y2="   510" style = "stroke: Black;"/>
  <line x1="  1900" y1="   630" x2="  2000" y2="   630" style = "stroke: Black;"/>
  <line x1="  2200" y1="   150" x2="  2300" y2="   150" style = "stroke: Black;"/>
  <line x1="  2200" y1="   310" x2="  2300" y2="   310" style = "stroke: Black;"/>
  <line x1="  1900" y1="   710" x2="  1950" y2="   710" style = "stroke: Black;"/>
  <line x1="  2200" y1="   110" x2="  2300" y2="   110" style = "stroke: Black;"/>
  <line x1="  2200" y1="    70" x2="  2300" y2="    70" style = "stroke: Black;"/>
  <line x1="  2200" y1="    30" x2="  2300" y2="    30" style = "stroke: Black;"/>
  <line x1="  2200" y1="   190" x2="  2300" y2="   190" style = "stroke: Black;"/>
  <line x1="  2200" y1="   390" x2="  2300" y2="   390" style = "stroke: Black;"/>
  <line x1="  2200" y1="   270" x2="  2300" y2="   270" style = "stroke: Black;"/>
  <line x1="  2200" y1="   350" x2="  2300" y2="   350" style = "stroke: Black;"/>
  <line x1="  2200" y1="   430" x2="  2300" y2="   430" style = "stroke: Black;"/>
  <line x1="  2200" y1="   550" x2="  2300" y2="   550" style = "stroke: Black;"/>
  <line x1="  2200" y1="   590" x2="  2300" y2="   590" style = "stroke: Black;"/>
  <line x1="  2200" y1="   510" x2="  2300" y2="   510" style = "stroke: Black;"/>
  <line x1="  2200" y1="   630" x2="  2300" y2="   630" style = "stroke: Black;"/>
  <line x1="  1000" y1="    30" x2="  1100" y2="    30" style = "stroke: Black;"/>
  <line x1="  1000" y1="   270" x2="  1100" y2="   270" style = "stroke: Black;"/>
  <line x1="  1000" y1="   510" x2="  1100" y2="   510" style = "stroke: Black;"/>
  <line x1="   900" y1="   710" x2="   950" y2="   710" style = "stroke: Black;"/>
  <line x1="   400" y1="    30" x2="   500" y2="    30" style = "stroke: Black;"/>
  <line x1="   400" y1="   270" x2="   500" y2="   270" style = "stroke: Black;"/>
  <line x1="   400" y1="   510" x2="   500" y2="   510" style = "stroke: Black;"/>
  <line x1="   400" y1="   710" x2="   450" y2="   710" style = "stroke: Black;"/>
  <line x1="  2500" y1="   870" x2="  2600" y2="  1030" style = "stroke: Black;"/>
  <line x1="   700" y1="    30" x2="   800" y2="    30" style = "stroke: Black;"/>
  <line x1="  2500" y1="   910" x2="  2600" y2="  1030" style = "stroke: Black;"/>
  <line x1="   700" y1="   270" x2="   800" y2="   270" style = "stroke: Black;"/>
  <line x1="  2500" y1="   950" x2="  2600" y2="  1030" style = "stroke: Black;"/>
  <line x1="   700" y1="   510" x2="   800" y2="   510" style = "stroke: Black;"/>
  <line x1="  2500" y1="   990" x2="  2600" y2="  1030" style = "stroke: Black;"/>
  <line x1="   650" y1="   710" x2="   700" y2="   710" style = "stroke: Black;"/>
  <line x1="  1300" y1="    30" x2="  1400" y2="    30" style = "stroke: Black;"/>
  <line x1="  1300" y1="   270" x2="  1400" y2="   270" style = "stroke: Black;"/>
  <line x1="  1300" y1="   510" x2="  1400" y2="   510" style = "stroke: Black;"/>
  <line x1="  1150" y1="   710" x2="  1200" y2="   710" style = "stroke: Black;"/>
  <line x1="  1000" y1="   790" x2="  1100" y2="   870" style = "stroke: Black;"/>
  <line x1="  2150" y1="  1150" x2="  2200" y2="  1230" style = "stroke: Black;"/>
  <line x1="  1000" y1="   830" x2="  1100" y2="   870" style = "stroke: Black;"/>
  <line x1="  2150" y1="  1190" x2="  2200" y2="  1230" style = "stroke: Black;"/>
  <line x1="   900" y1="  1110" x2="   950" y2="  1150" style = "stroke: Black;"/>
  <line x1="   400" y1="   790" x2="   500" y2="   790" style = "stroke: Black;"/>
  <line x1="   400" y1="  1110" x2="   450" y2="  1110" style = "stroke: Black;"/>
  <line x1="   400" y1="  1310" x2="   600" y2="  1310" style = "stroke: Black;"/>
  <line x1="  2500" y1="   150" x2="  2600" y2="   190" style = "stroke: Black;"/>
  <line x1="  2500" y1="   310" x2="  2600" y2="   430" style = "stroke: Black;"/>
  <line x1="  2150" y1="   710" x2="  2200" y2="   710" style = "stroke: Black;"/>
  <line x1="  2500" y1="   110" x2="  2600" y2="   190" style = "stroke: Black;"/>
  <line x1="  2500" y1="    70" x2="  2600" y2="   190" style = "stroke: Black;"/>
  <line x1="  2500" y1="    30" x2="  2600" y2="   190" style = "stroke: Black;"/>
  <line x1="  2500" y1="   190" x2="  2600" y2="   190" style = "stroke: Black;"/>
  <line x1="  2500" y1="   390" x2="  2600" y2="   430" style = "stroke: Black;"/>
  <line x1="  2500" y1="   270" x2="  2600" y2="   430" style = "stroke: Black;"/>
  <line x1="  2500" y1="   350" x2="  2600" y2="   430" style = "stroke: Black;"/>
  <line x1="  2500" y1="   430" x2="  2600" y2="   430" style = "stroke: Black;"/>
  <line x1="  2500" y1="   550" x2="  2600" y2="   630" style = "stroke: Black;"/>
  <line x1="  2500" y1="   590" x2="  2600" y2="   630" style = "stroke: Black;"/>
  <line x1="  2500" y1="   510" x2="  2600" y2="   630" style = "stroke: Black;"/>
  <line x1="  2500" y1="   630" x2="  2600" y2="   630" style = "stroke: Black;"/>
  <line x1="   200" y1="    30" x2="   175" y2="    30" style = "stroke: Black;"/>
  <line x1="   175" y1="    30" x2="   175" y2="     0" style = "stroke: Black;"/>
  <line x1="   175" y1="     0" x2="  2825" y2="     0" style = "stroke: Black;"/>
  <line x1="  2825" y1="     0" x2="  2825" y2="   190" style = "stroke: Black;"/>
  <line x1="  2825" y1="   190" x2="  2800" y2="   190" style = "stroke: Black;"/>
  <line x1="   200" y1="   270" x2="   175" y2="   270" style = "stroke: Black;"/>
  <line x1="   175" y1="   270" x2="   175" y2="   240" style = "stroke: Black;"/>
  <line x1="   175" y1="   240" x2="  2825" y2="   240" style = "stroke: Black;"/>
  <line x1="  2825" y1="   240" x2="  2825" y2="   430" style = "stroke: Black;"/>
  <line x1="  2825" y1="   430" x2="  2800" y2="   430" style = "stroke: Black;"/>
  <line x1="   200" y1="   510" x2="   175" y2="   510" style = "stroke: Black;"/>
  <line x1="   175" y1="   510" x2="   175" y2="   480" style = "stroke: Black;"/>
  <line x1="   175" y1="   480" x2="  2825" y2="   480" style = "stroke: Black;"/>
  <line x1="  2825" y1="   480" x2="  2825" y2="   630" style = "stroke: Black;"/>
  <line x1="  2825" y1="   630" x2="  2800" y2="   630" style = "stroke: Black;"/>
  <line x1="   200" y1="   710" x2="   175" y2="   710" style = "stroke: Black;"/>
  <line x1="   175" y1="   710" x2="   175" y2="   680" style = "stroke: Black;"/>
  <line x1="   175" y1="   680" x2="  2425" y2="   680" style = "stroke: Black;"/>
  <line x1="  2425" y1="   680" x2="  2425" y2="   710" style = "stroke: Black;"/>
  <line x1="  2425" y1="   710" x2="  2400" y2="   710" style = "stroke: Black;"/>
  <line x1="   200" y1="   790" x2="   175" y2="   790" style = "stroke: Black;"/>
  <line x1="   175" y1="   790" x2="   175" y2="   760" style = "stroke: Black;"/>
  <line x1="   175" y1="   760" x2="  3125" y2="   760" style = "stroke: Black;"/>
  <line x1="  3125" y1="   760" x2="  3125" y2="  1030" style = "stroke: Black;"/>
  <line x1="  3125" y1="  1030" x2="  3100" y2="  1030" style = "stroke: Black;"/>
  <line x1="   200" y1="  1110" x2="   175" y2="  1110" style = "stroke: Black;"/>
  <line x1="   175" y1="  1110" x2="   175" y2="  1080" style = "stroke: Black;"/>
  <line x1="   175" y1="  1080" x2="  2675" y2="  1080" style = "stroke: Black;"/>
  <line x1="  2675" y1="  1080" x2="  2675" y2="  1230" style = "stroke: Black;"/>
  <line x1="  2675" y1="  1230" x2="  2650" y2="  1230" style = "stroke: Black;"/>
  <line x1="   200" y1="  1310" x2="   175" y2="  1310" style = "stroke: Black;"/>
  <line x1="   175" y1="  1310" x2="   175" y2="  1280" style = "stroke: Black;"/>
  <line x1="   175" y1="  1280" x2="  4025" y2="  1280" style = "stroke: Black;"/>
  <line x1="  4025" y1="  1280" x2="  4025" y2="  1990" style = "stroke: Black;"/>
  <line x1="  4025" y1="  1990" x2="  4000" y2="  1990" style = "stroke: Black;"/>
  <text x="   200" y="  2360">Unused Non-Parent Objects:</text>
  <text x="   220" y="  2380">OutdoorAir:Node</text>
  <text x="   220" y="  2400">SETPOINT MANAGER SCHEDULED 3</text>
  <text x="   220" y="  2420">SETPOINT MANAGER SCHEDULED 4</text>
  <text x="   220" y="  2440">SETPOINT MANAGER SCHEDULED 5</text>
  <text x="   220" y="  2460">SETPOINT MANAGER SCHEDULED 6</text>
  <text x="   220" y="  2480">SETPOINT MANAGER SCHEDULED 1</text>
  <text x="   220" y="  2500">SETPOINT MANAGER SCHEDULED 2</text>
  <text x="   220" y="  2520">SERVICE HOT WATER SETPOINT MANAGER</text>
  <text x="   220" y="  2540">SETPOINT MANAGER SINGLE ZONE HUMIDITY MAXIMUM</text>
  <text x="   220" y="  2560">NODE 56 OS DEFAULT SPM</text>
  <text x="   220" y="  2580">NODE 55 OS DEFAULT SPM</text>
  <text x="   220" y="  2600">NODE 54 OS DEFAULT SPM</text>
  <text x="   220" y="  2620">NODE 82 OS DEFAULT SPM</text>
  <text x="   220" y="  2640">NODE 81 OS DEFAULT SPM</text>
  <text x="   220" y="  2660">NODE 80 OS DEFAULT SPM</text>
  <text x="   220" y="  2680">NODE 108 OS DEFAULT SPM</text>
  <text x="   220" y="  2700">NODE 107 OS DEFAULT SPM</text>
  <text x="   220" y="  2720">NODE 106 OS DEFAULT SPM</text>
  <text x="   220" y="  2740">NODE 174 OS DEFAULT SPM</text>
  <text x="   220" y="  2760">NODE 175 OS DEFAULT SPM</text>
  <text x="   220" y="  2780">NODE 176 OS DEFAULT SPM</text>
  <text x="   220" y="  2800">ZONE HVAC DEHUMIDIFIER</text>
  <text x="   220" y="  2820">CONTROLLER WATER COIL 1</text>
  <text x="   220" y="  2840">CONTROLLER WATER COIL 2</text>
  <text x="   220" y="  2860">CONTROLLER WATER COIL 3</text>
  <text x="   220" y="  2880">CONTROLLER WATER COIL 4</text>
  <text x="   220" y="  2900">CONTROLLER OUTDOOR AIR 1</text>
  <text x="   220" y="  2920">CONTROLLER OUTDOOR AIR 2</text>
  <text x="   220" y="  2940">CONTROLLER OUTDOOR AIR 3</text>
  <text x="   220" y="  2960">CONTROLLER OUTDOOR AIR 4</text>
  <text x="   200" y="  3000">
The following are not supported: objects related to controls, AirTerminal:SingleDuct:Uncontrolled, or ZoneHVAC:IdealLoadsAirSystem</text>
</g>
</svg>
